<mxfile host="Electron" modified="2023-07-06T00:40:55.094Z" agent="Mozilla/5.0 (Windows NT 10.0; Win64; x64) AppleWebKit/537.36 (KHTML, like Gecko) draw.io/21.5.1 Chrome/112.0.5615.204 Electron/24.6.0 Safari/537.36" etag="8qxOCThq_1pAE4cChTiL" version="21.5.1" type="device" pages="6">
  <diagram name="General Structure" id="98Wy-qGtz1htmhqNoZCP">
    <mxGraphModel dx="1434" dy="1684" grid="1" gridSize="10" guides="1" tooltips="1" connect="1" arrows="1" fold="1" page="0" pageScale="1" pageWidth="827" pageHeight="1169" background="none" math="1" shadow="0">
      <root>
        <mxCell id="0" />
        <mxCell id="1" parent="0" />
        <mxCell id="Zt2jwXp6saf1cUh6ZIA2-4" style="edgeStyle=orthogonalEdgeStyle;rounded=0;sketch=1;hachureGap=4;jiggle=2;curveFitting=1;orthogonalLoop=1;jettySize=auto;html=1;fontFamily=Architects Daughter;fontSource=https%3A%2F%2Ffonts.googleapis.com%2Fcss%3Ffamily%3DArchitects%2BDaughter;fontSize=16;curved=1;entryX=0.25;entryY=0;entryDx=0;entryDy=0;" edge="1" parent="1" source="Zt2jwXp6saf1cUh6ZIA2-1" target="E9UtoPQuEZGJdsfPSDnH-1">
          <mxGeometry relative="1" as="geometry" />
        </mxCell>
        <mxCell id="E9UtoPQuEZGJdsfPSDnH-1" value="&lt;font style=&quot;font-size: 16px;&quot;&gt;Module&lt;/font&gt;" style="rounded=1;whiteSpace=wrap;html=1;sketch=1;curveFitting=1;jiggle=2;fontSize=16;" parent="1" vertex="1">
          <mxGeometry x="150" y="-30" width="120" height="60" as="geometry" />
        </mxCell>
        <mxCell id="Zt2jwXp6saf1cUh6ZIA2-5" style="edgeStyle=orthogonalEdgeStyle;rounded=0;sketch=1;hachureGap=4;jiggle=2;curveFitting=1;orthogonalLoop=1;jettySize=auto;html=1;exitX=1;exitY=0.25;exitDx=0;exitDy=0;fontFamily=Architects Daughter;fontSource=https%3A%2F%2Ffonts.googleapis.com%2Fcss%3Ffamily%3DArchitects%2BDaughter;fontSize=16;curved=1;entryX=1;entryY=0.5;entryDx=0;entryDy=0;" edge="1" parent="1" source="Zt2jwXp6saf1cUh6ZIA2-1" target="E9UtoPQuEZGJdsfPSDnH-4">
          <mxGeometry relative="1" as="geometry">
            <Array as="points">
              <mxPoint x="1250" y="-475" />
              <mxPoint x="1250" y="-60" />
            </Array>
          </mxGeometry>
        </mxCell>
        <mxCell id="E9UtoPQuEZGJdsfPSDnH-4" value="&lt;font style=&quot;font-size: 16px;&quot;&gt;Plugin&lt;/font&gt;" style="rounded=1;whiteSpace=wrap;html=1;sketch=1;curveFitting=1;jiggle=2;fontSize=16;" parent="1" vertex="1">
          <mxGeometry x="640" y="-90" width="120" height="60" as="geometry" />
        </mxCell>
        <mxCell id="E9UtoPQuEZGJdsfPSDnH-5" value="Adapter" style="rounded=1;whiteSpace=wrap;html=1;sketch=1;jiggle=2;curveFitting=1;strokeColor=default;fontFamily=Helvetica;fontSize=16;fontColor=default;fillColor=default;" parent="1" vertex="1">
          <mxGeometry x="320" y="-290" width="120" height="60" as="geometry" />
        </mxCell>
        <mxCell id="Zt2jwXp6saf1cUh6ZIA2-3" style="rounded=0;sketch=1;hachureGap=4;jiggle=2;curveFitting=1;orthogonalLoop=1;jettySize=auto;html=1;fontFamily=Architects Daughter;fontSource=https%3A%2F%2Ffonts.googleapis.com%2Fcss%3Ffamily%3DArchitects%2BDaughter;fontSize=16;entryX=0.5;entryY=0;entryDx=0;entryDy=0;" edge="1" parent="1" source="Zt2jwXp6saf1cUh6ZIA2-1" target="E9UtoPQuEZGJdsfPSDnH-6">
          <mxGeometry relative="1" as="geometry" />
        </mxCell>
        <mxCell id="E9UtoPQuEZGJdsfPSDnH-6" value="Driver" style="rounded=1;whiteSpace=wrap;sketch=1;jiggle=2;curveFitting=1;strokeColor=default;fontFamily=Helvetica;fontSize=16;fontColor=default;fillColor=default;html=1;" parent="1" vertex="1">
          <mxGeometry x="600" y="-300" width="120" height="60" as="geometry" />
        </mxCell>
        <mxCell id="E9UtoPQuEZGJdsfPSDnH-13" value="Client&lt;br style=&quot;border-color: var(--border-color);&quot;&gt;(Emulator/DesktopApp)" style="shape=hexagon;perimeter=hexagonPerimeter2;whiteSpace=wrap;html=1;fixedSize=1;rounded=1;sketch=1;jiggle=2;curveFitting=1;strokeColor=default;fontFamily=Helvetica;fontSize=16;fontColor=default;fillColor=default;" parent="1" vertex="1">
          <mxGeometry x="940" y="-330" width="250" height="80" as="geometry" />
        </mxCell>
        <mxCell id="E9UtoPQuEZGJdsfPSDnH-19" value="" style="endArrow=classic;html=1;rounded=1;hachureGap=4;fontFamily=Helvetica;fontSource=https%3A%2F%2Ffonts.googleapis.com%2Fcss%3Ffamily%3DArchitects%2BDaughter;fontSize=16;fontColor=default;exitX=1;exitY=0.25;exitDx=0;exitDy=0;entryX=0.028;entryY=0.375;entryDx=0;entryDy=0;entryPerimeter=0;sketch=1;curveFitting=1;jiggle=2;" parent="1" source="E9UtoPQuEZGJdsfPSDnH-6" target="E9UtoPQuEZGJdsfPSDnH-13" edge="1">
          <mxGeometry width="50" height="50" relative="1" as="geometry">
            <mxPoint x="620" y="-80" as="sourcePoint" />
            <mxPoint x="670" y="-130" as="targetPoint" />
          </mxGeometry>
        </mxCell>
        <mxCell id="E9UtoPQuEZGJdsfPSDnH-20" value="Interact&lt;br&gt;(Touch/Keyboard)" style="edgeLabel;html=1;align=center;verticalAlign=middle;resizable=0;points=[];fontSize=16;fontFamily=Helvetica;fontColor=default;" parent="E9UtoPQuEZGJdsfPSDnH-19" vertex="1" connectable="0">
          <mxGeometry x="0.2411" y="1" relative="1" as="geometry">
            <mxPoint x="-28" y="-31" as="offset" />
          </mxGeometry>
        </mxCell>
        <mxCell id="E9UtoPQuEZGJdsfPSDnH-21" value="" style="endArrow=classic;html=1;rounded=1;hachureGap=4;fontFamily=Helvetica;fontSource=https%3A%2F%2Ffonts.googleapis.com%2Fcss%3Ffamily%3DArchitects%2BDaughter;fontSize=16;fontColor=default;exitX=0;exitY=0.75;exitDx=0;exitDy=0;entryX=1;entryY=0.75;entryDx=0;entryDy=0;sketch=1;curveFitting=1;jiggle=2;" parent="1" source="E9UtoPQuEZGJdsfPSDnH-13" target="E9UtoPQuEZGJdsfPSDnH-6" edge="1">
          <mxGeometry width="50" height="50" relative="1" as="geometry">
            <mxPoint x="920.0045569620255" y="-255.2808860759494" as="sourcePoint" />
            <mxPoint x="720" y="-270" as="targetPoint" />
          </mxGeometry>
        </mxCell>
        <mxCell id="E9UtoPQuEZGJdsfPSDnH-22" value="Raw&lt;br&gt;(ScreenShot/CaptureApi)" style="edgeLabel;html=1;align=center;verticalAlign=middle;resizable=0;points=[];fontSize=16;fontFamily=Helvetica;fontColor=default;labelBorderColor=none;" parent="E9UtoPQuEZGJdsfPSDnH-21" vertex="1" connectable="0">
          <mxGeometry x="-0.0457" y="3" relative="1" as="geometry">
            <mxPoint y="25" as="offset" />
          </mxGeometry>
        </mxCell>
        <mxCell id="E9UtoPQuEZGJdsfPSDnH-23" value="" style="endArrow=classic;html=1;rounded=1;hachureGap=4;fontFamily=Helvetica;fontSource=https%3A%2F%2Ffonts.googleapis.com%2Fcss%3Ffamily%3DArchitects%2BDaughter;fontSize=16;fontColor=default;exitX=1;exitY=0.25;exitDx=0;exitDy=0;entryX=0;entryY=0.25;entryDx=0;entryDy=0;sketch=1;curveFitting=1;jiggle=2;" parent="1" source="E9UtoPQuEZGJdsfPSDnH-5" target="E9UtoPQuEZGJdsfPSDnH-6" edge="1">
          <mxGeometry width="50" height="50" relative="1" as="geometry">
            <mxPoint x="620" y="-80" as="sourcePoint" />
            <mxPoint x="670" y="-130" as="targetPoint" />
            <Array as="points" />
          </mxGeometry>
        </mxCell>
        <mxCell id="E9UtoPQuEZGJdsfPSDnH-25" value="Signal" style="edgeLabel;html=1;align=center;verticalAlign=middle;resizable=0;points=[];fontSize=16;fontFamily=Helvetica;fontColor=default;" parent="E9UtoPQuEZGJdsfPSDnH-23" vertex="1" connectable="0">
          <mxGeometry x="-0.049" y="1" relative="1" as="geometry">
            <mxPoint y="1" as="offset" />
          </mxGeometry>
        </mxCell>
        <mxCell id="E9UtoPQuEZGJdsfPSDnH-26" value="" style="endArrow=classic;html=1;rounded=1;hachureGap=4;fontFamily=Helvetica;fontSource=https%3A%2F%2Ffonts.googleapis.com%2Fcss%3Ffamily%3DArchitects%2BDaughter;fontSize=16;fontColor=default;entryX=1;entryY=0.75;entryDx=0;entryDy=0;sketch=1;curveFitting=1;jiggle=2;" parent="1" target="E9UtoPQuEZGJdsfPSDnH-5" edge="1">
          <mxGeometry width="50" height="50" relative="1" as="geometry">
            <mxPoint x="600" y="-260" as="sourcePoint" />
            <mxPoint x="670" y="-130" as="targetPoint" />
          </mxGeometry>
        </mxCell>
        <mxCell id="E9UtoPQuEZGJdsfPSDnH-27" value="Image" style="edgeLabel;html=1;align=center;verticalAlign=middle;resizable=0;points=[];fontSize=16;fontFamily=Helvetica;fontColor=default;" parent="E9UtoPQuEZGJdsfPSDnH-26" vertex="1" connectable="0">
          <mxGeometry x="-0.0118" y="1" relative="1" as="geometry">
            <mxPoint x="-11" y="2" as="offset" />
          </mxGeometry>
        </mxCell>
        <mxCell id="E9UtoPQuEZGJdsfPSDnH-28" value="" style="endArrow=classic;html=1;rounded=1;hachureGap=4;fontFamily=Helvetica;fontSource=https%3A%2F%2Ffonts.googleapis.com%2Fcss%3Ffamily%3DArchitects%2BDaughter;fontSize=16;fontColor=default;sketch=1;curveFitting=1;jiggle=2;" parent="1" edge="1" source="E9UtoPQuEZGJdsfPSDnH-1">
          <mxGeometry width="50" height="50" relative="1" as="geometry">
            <mxPoint x="370" y="-110" as="sourcePoint" />
            <mxPoint x="370" y="-230" as="targetPoint" />
          </mxGeometry>
        </mxCell>
        <mxCell id="E9UtoPQuEZGJdsfPSDnH-29" value="Inherited class/&lt;br&gt;Functional tools" style="edgeLabel;html=1;align=center;verticalAlign=middle;resizable=0;points=[];fontSize=16;fontFamily=Helvetica;fontColor=default;" parent="E9UtoPQuEZGJdsfPSDnH-28" vertex="1" connectable="0">
          <mxGeometry x="0.0167" y="1" relative="1" as="geometry">
            <mxPoint x="1" as="offset" />
          </mxGeometry>
        </mxCell>
        <mxCell id="E9UtoPQuEZGJdsfPSDnH-30" value="" style="endArrow=classic;html=1;rounded=1;hachureGap=4;fontFamily=Helvetica;fontSource=https%3A%2F%2Ffonts.googleapis.com%2Fcss%3Ffamily%3DArchitects%2BDaughter;fontSize=16;fontColor=default;entryX=0.983;entryY=0.65;entryDx=0;entryDy=0;sketch=1;curveFitting=1;jiggle=2;entryPerimeter=0;" parent="1" source="E9UtoPQuEZGJdsfPSDnH-4" target="E9UtoPQuEZGJdsfPSDnH-1" edge="1">
          <mxGeometry width="50" height="50" relative="1" as="geometry">
            <mxPoint x="680" y="-230" as="sourcePoint" />
            <mxPoint x="730" y="-280" as="targetPoint" />
          </mxGeometry>
        </mxCell>
        <mxCell id="E9UtoPQuEZGJdsfPSDnH-35" value="Inject" style="edgeLabel;html=1;align=center;verticalAlign=middle;resizable=0;points=[];fontSize=16;fontFamily=Helvetica;fontColor=default;" parent="E9UtoPQuEZGJdsfPSDnH-30" vertex="1" connectable="0">
          <mxGeometry x="0.0678" y="3" relative="1" as="geometry">
            <mxPoint y="-6" as="offset" />
          </mxGeometry>
        </mxCell>
        <mxCell id="E9UtoPQuEZGJdsfPSDnH-31" value="" style="endArrow=classic;html=1;rounded=1;hachureGap=4;fontFamily=Helvetica;fontSource=https%3A%2F%2Ffonts.googleapis.com%2Fcss%3Ffamily%3DArchitects%2BDaughter;fontSize=16;fontColor=default;sketch=1;curveFitting=1;jiggle=2;" parent="1" source="E9UtoPQuEZGJdsfPSDnH-4" target="E9UtoPQuEZGJdsfPSDnH-5" edge="1">
          <mxGeometry width="50" height="50" relative="1" as="geometry">
            <mxPoint x="650" y="-54" as="sourcePoint" />
            <mxPoint x="450" y="-66" as="targetPoint" />
          </mxGeometry>
        </mxCell>
        <mxCell id="E9UtoPQuEZGJdsfPSDnH-33" value="Inject" style="edgeLabel;html=1;align=center;verticalAlign=middle;resizable=0;points=[];fontSize=16;fontFamily=Helvetica;fontColor=default;" parent="E9UtoPQuEZGJdsfPSDnH-31" vertex="1" connectable="0">
          <mxGeometry x="-0.1661" y="-1" relative="1" as="geometry">
            <mxPoint as="offset" />
          </mxGeometry>
        </mxCell>
        <mxCell id="E9UtoPQuEZGJdsfPSDnH-32" value="" style="endArrow=classic;html=1;rounded=1;hachureGap=4;fontFamily=Helvetica;fontSource=https%3A%2F%2Ffonts.googleapis.com%2Fcss%3Ffamily%3DArchitects%2BDaughter;fontSize=16;fontColor=default;sketch=1;curveFitting=1;jiggle=2;" parent="1" source="E9UtoPQuEZGJdsfPSDnH-4" target="E9UtoPQuEZGJdsfPSDnH-6" edge="1">
          <mxGeometry width="50" height="50" relative="1" as="geometry">
            <mxPoint x="660" y="-44" as="sourcePoint" />
            <mxPoint x="460" y="-56" as="targetPoint" />
          </mxGeometry>
        </mxCell>
        <mxCell id="E9UtoPQuEZGJdsfPSDnH-36" value="Inject" style="edgeLabel;html=1;align=center;verticalAlign=middle;resizable=0;points=[];fontSize=16;fontFamily=Helvetica;fontColor=default;" parent="E9UtoPQuEZGJdsfPSDnH-32" vertex="1" connectable="0">
          <mxGeometry x="0.0153" y="1" relative="1" as="geometry">
            <mxPoint as="offset" />
          </mxGeometry>
        </mxCell>
        <mxCell id="E9UtoPQuEZGJdsfPSDnH-37" value="Additional Features" style="ellipse;whiteSpace=wrap;html=1;rounded=1;sketch=1;jiggle=2;curveFitting=1;strokeColor=default;fontFamily=Helvetica;fontSize=16;fontColor=default;fillColor=default;" parent="1" vertex="1">
          <mxGeometry x="620" y="100" width="120" height="80" as="geometry" />
        </mxCell>
        <mxCell id="E9UtoPQuEZGJdsfPSDnH-38" value="" style="shape=flexArrow;endArrow=classic;html=1;rounded=1;hachureGap=4;fontFamily=Helvetica;fontSource=https%3A%2F%2Ffonts.googleapis.com%2Fcss%3Ffamily%3DArchitects%2BDaughter;fontSize=16;fontColor=default;exitX=0.5;exitY=1;exitDx=0;exitDy=0;sketch=1;curveFitting=1;jiggle=2;" parent="1" source="E9UtoPQuEZGJdsfPSDnH-4" target="E9UtoPQuEZGJdsfPSDnH-37" edge="1">
          <mxGeometry width="50" height="50" relative="1" as="geometry">
            <mxPoint x="850" y="-130" as="sourcePoint" />
            <mxPoint x="900" y="-180" as="targetPoint" />
          </mxGeometry>
        </mxCell>
        <mxCell id="Zt2jwXp6saf1cUh6ZIA2-1" value="Utility" style="rounded=1;whiteSpace=wrap;html=1;sketch=1;jiggle=2;curveFitting=1;strokeColor=default;fontFamily=Helvetica;fontSize=16;fontColor=default;fillColor=default;" vertex="1" parent="1">
          <mxGeometry x="490" y="-490" width="120" height="60" as="geometry" />
        </mxCell>
        <mxCell id="Zt2jwXp6saf1cUh6ZIA2-2" value="" style="endArrow=classic;html=1;rounded=0;sketch=1;hachureGap=4;jiggle=2;curveFitting=1;fontFamily=Architects Daughter;fontSource=https%3A%2F%2Ffonts.googleapis.com%2Fcss%3Ffamily%3DArchitects%2BDaughter;fontSize=16;" edge="1" parent="1" source="Zt2jwXp6saf1cUh6ZIA2-1" target="E9UtoPQuEZGJdsfPSDnH-5">
          <mxGeometry width="50" height="50" relative="1" as="geometry">
            <mxPoint x="740" y="-220" as="sourcePoint" />
            <mxPoint x="690" y="-170" as="targetPoint" />
          </mxGeometry>
        </mxCell>
      </root>
    </mxGraphModel>
  </diagram>
  <diagram id="-d_hoCsqS4O_Cm1aj73_" name="Module">
    <mxGraphModel dx="1434" dy="1284" grid="1" gridSize="10" guides="1" tooltips="1" connect="1" arrows="1" fold="1" page="0" pageScale="1" pageWidth="827" pageHeight="1169" math="0" shadow="0">
      <root>
        <mxCell id="0" />
        <mxCell id="1" parent="0" />
        <mxCell id="vqtAvjdkBAlzpXOq_8f0-1" value="Module" style="shape=umlFrame;whiteSpace=wrap;html=1;pointerEvents=0;recursiveResize=0;container=1;collapsible=0;width=160;rounded=1;sketch=1;jiggle=2;curveFitting=1;strokeColor=default;fontFamily=Helvetica;fontSize=16;fontColor=default;fillColor=default;shadow=1;" parent="1" vertex="1">
          <mxGeometry x="120" y="-200" width="460" height="330" as="geometry" />
        </mxCell>
        <mxCell id="vqtAvjdkBAlzpXOq_8f0-2" value="Page" style="swimlane;whiteSpace=wrap;html=1;rounded=1;sketch=1;jiggle=2;curveFitting=1;strokeColor=default;fontFamily=Helvetica;fontSize=16;fontColor=default;fillColor=default;" parent="vqtAvjdkBAlzpXOq_8f0-1" vertex="1">
          <mxGeometry x="10" y="40" width="140" height="230" as="geometry" />
        </mxCell>
        <mxCell id="vqtAvjdkBAlzpXOq_8f0-3" value="Page" style="rounded=1;whiteSpace=wrap;html=1;sketch=1;jiggle=2;curveFitting=1;strokeColor=default;fontFamily=Helvetica;fontSize=16;fontColor=default;fillColor=default;" parent="vqtAvjdkBAlzpXOq_8f0-2" vertex="1">
          <mxGeometry x="10" y="30" width="120" height="40" as="geometry" />
        </mxCell>
        <mxCell id="vqtAvjdkBAlzpXOq_8f0-4" value="Switch" style="rounded=1;whiteSpace=wrap;html=1;sketch=1;jiggle=2;curveFitting=1;strokeColor=default;fontFamily=Helvetica;fontSize=16;fontColor=default;fillColor=default;" parent="vqtAvjdkBAlzpXOq_8f0-2" vertex="1">
          <mxGeometry x="10" y="80" width="120" height="40" as="geometry" />
        </mxCell>
        <mxCell id="vqtAvjdkBAlzpXOq_8f0-5" value="Button" style="rounded=1;whiteSpace=wrap;html=1;sketch=1;jiggle=2;curveFitting=1;strokeColor=default;fontFamily=Helvetica;fontSize=16;fontColor=default;fillColor=default;" parent="vqtAvjdkBAlzpXOq_8f0-2" vertex="1">
          <mxGeometry x="10" y="130" width="120" height="40" as="geometry" />
        </mxCell>
        <mxCell id="vqtAvjdkBAlzpXOq_8f0-6" value="Slider" style="rounded=1;whiteSpace=wrap;html=1;sketch=1;jiggle=2;curveFitting=1;strokeColor=default;fontFamily=Helvetica;fontSize=16;fontColor=default;fillColor=default;" parent="vqtAvjdkBAlzpXOq_8f0-2" vertex="1">
          <mxGeometry x="10" y="180" width="120" height="40" as="geometry" />
        </mxCell>
        <mxCell id="vqtAvjdkBAlzpXOq_8f0-7" value="Manager" style="swimlane;whiteSpace=wrap;html=1;rounded=1;sketch=1;jiggle=2;curveFitting=1;strokeColor=default;fontFamily=Helvetica;fontSize=16;fontColor=default;fillColor=default;" parent="vqtAvjdkBAlzpXOq_8f0-1" vertex="1">
          <mxGeometry x="160" y="40" width="140" height="280" as="geometry" />
        </mxCell>
        <mxCell id="vqtAvjdkBAlzpXOq_8f0-8" value="Manager" style="rounded=1;whiteSpace=wrap;html=1;sketch=1;jiggle=2;curveFitting=1;strokeColor=default;fontFamily=Helvetica;fontSize=16;fontColor=default;fillColor=default;" parent="vqtAvjdkBAlzpXOq_8f0-7" vertex="1">
          <mxGeometry x="10" y="30" width="120" height="40" as="geometry" />
        </mxCell>
        <mxCell id="vqtAvjdkBAlzpXOq_8f0-9" value="Scheduler" style="rounded=1;whiteSpace=wrap;html=1;sketch=1;jiggle=2;curveFitting=1;strokeColor=default;fontFamily=Helvetica;fontSize=16;fontColor=default;fillColor=default;" parent="vqtAvjdkBAlzpXOq_8f0-7" vertex="1">
          <mxGeometry x="10" y="80" width="120" height="40" as="geometry" />
        </mxCell>
        <mxCell id="vqtAvjdkBAlzpXOq_8f0-10" value="Executor" style="rounded=1;whiteSpace=wrap;html=1;sketch=1;jiggle=2;curveFitting=1;strokeColor=default;fontFamily=Helvetica;fontSize=16;fontColor=default;fillColor=default;" parent="vqtAvjdkBAlzpXOq_8f0-7" vertex="1">
          <mxGeometry x="10" y="130" width="120" height="40" as="geometry" />
        </mxCell>
        <mxCell id="vqtAvjdkBAlzpXOq_8f0-11" value="Trigger" style="rounded=1;whiteSpace=wrap;html=1;sketch=1;jiggle=2;curveFitting=1;strokeColor=default;fontFamily=Helvetica;fontSize=16;fontColor=default;fillColor=default;" parent="vqtAvjdkBAlzpXOq_8f0-7" vertex="1">
          <mxGeometry x="10" y="180" width="120" height="40" as="geometry" />
        </mxCell>
        <mxCell id="vqtAvjdkBAlzpXOq_8f0-12" value="JobStore" style="rounded=1;whiteSpace=wrap;html=1;sketch=1;jiggle=2;curveFitting=1;strokeColor=default;fontFamily=Helvetica;fontSize=16;fontColor=default;fillColor=default;" parent="vqtAvjdkBAlzpXOq_8f0-7" vertex="1">
          <mxGeometry x="10" y="230" width="120" height="40" as="geometry" />
        </mxCell>
        <mxCell id="vqtAvjdkBAlzpXOq_8f0-15" value="Task" style="swimlane;whiteSpace=wrap;html=1;rounded=1;sketch=1;jiggle=2;curveFitting=1;strokeColor=default;fontFamily=Helvetica;fontSize=16;fontColor=default;fillColor=default;" parent="vqtAvjdkBAlzpXOq_8f0-1" vertex="1">
          <mxGeometry x="310" y="40" width="140" height="130" as="geometry" />
        </mxCell>
        <mxCell id="vqtAvjdkBAlzpXOq_8f0-16" value="Task" style="rounded=1;whiteSpace=wrap;html=1;sketch=1;jiggle=2;curveFitting=1;strokeColor=default;fontFamily=Helvetica;fontSize=16;fontColor=default;fillColor=default;" parent="vqtAvjdkBAlzpXOq_8f0-15" vertex="1">
          <mxGeometry x="10" y="30" width="120" height="40" as="geometry" />
        </mxCell>
        <mxCell id="vqtAvjdkBAlzpXOq_8f0-17" value="Step" style="rounded=1;whiteSpace=wrap;html=1;sketch=1;jiggle=2;curveFitting=1;strokeColor=default;fontFamily=Helvetica;fontSize=16;fontColor=default;fillColor=default;" parent="vqtAvjdkBAlzpXOq_8f0-15" vertex="1">
          <mxGeometry x="10" y="80" width="120" height="40" as="geometry" />
        </mxCell>
        <mxCell id="vqtAvjdkBAlzpXOq_8f0-14" value="Log" style="rounded=1;whiteSpace=wrap;html=1;sketch=1;jiggle=2;curveFitting=1;strokeColor=default;fontFamily=Helvetica;fontSize=16;fontColor=default;fillColor=default;" parent="vqtAvjdkBAlzpXOq_8f0-1" vertex="1">
          <mxGeometry x="320" y="180" width="120" height="40" as="geometry" />
        </mxCell>
        <mxCell id="je06mMpeQxjHyOvOV5Rv-1" value="Task是Scheduler的最小调度单位&lt;br&gt;Step是Manager的最小感知单位" style="shape=card;whiteSpace=wrap;html=1;rounded=1;sketch=1;jiggle=2;curveFitting=1;strokeColor=default;fontFamily=Helvetica;fontSize=16;fontColor=default;fillColor=default;align=center;" vertex="1" parent="1">
          <mxGeometry x="600" y="-200" width="330" height="100" as="geometry" />
        </mxCell>
        <mxCell id="BVMGVH_8YDlemSOh8jt7-1" value="Detail information to module map" style="shape=callout;whiteSpace=wrap;html=1;perimeter=calloutPerimeter;sketch=1;hachureGap=4;jiggle=2;curveFitting=1;fontFamily=Architects Daughter;fontSource=https%3A%2F%2Ffonts.googleapis.com%2Fcss%3Ffamily%3DArchitects%2BDaughter;fontSize=20;" vertex="1" parent="1">
          <mxGeometry x="150" y="-300" width="390" height="100" as="geometry" />
        </mxCell>
      </root>
    </mxGraphModel>
  </diagram>
  <diagram id="hHSdu2oJDX3RFgh4TJQ5" name="Adapter">
    <mxGraphModel dx="1434" dy="884" grid="1" gridSize="10" guides="1" tooltips="1" connect="1" arrows="1" fold="1" page="0" pageScale="1" pageWidth="827" pageHeight="1169" math="0" shadow="0">
      <root>
        <mxCell id="0" />
        <mxCell id="1" parent="0" />
      </root>
    </mxGraphModel>
  </diagram>
  <diagram id="tAvYEqisswqWX-Cg3Mod" name="Driver">
    <mxGraphModel dx="1834" dy="884" grid="1" gridSize="10" guides="1" tooltips="1" connect="1" arrows="1" fold="1" page="0" pageScale="1" pageWidth="827" pageHeight="1169" math="0" shadow="0">
      <root>
        <mxCell id="0" />
        <mxCell id="1" parent="0" />
        <mxCell id="NiQ3y41oNnvnrkbR4yds-1" value="Driver" style="shape=umlFrame;whiteSpace=wrap;html=1;pointerEvents=0;recursiveResize=0;container=1;collapsible=0;width=160;sketch=1;hachureGap=4;jiggle=2;curveFitting=1;fontFamily=Architects Daughter;fontSource=https%3A%2F%2Ffonts.googleapis.com%2Fcss%3Ffamily%3DArchitects%2BDaughter;fontSize=20;" vertex="1" parent="1">
          <mxGeometry x="-90" y="90" width="520" height="230" as="geometry" />
        </mxCell>
        <mxCell id="853pc65NUVb5E3yohh3O-1" value="Screenshot on Emulator" style="swimlane;fontStyle=0;childLayout=stackLayout;horizontal=1;startSize=30;horizontalStack=0;resizeParent=1;resizeParentMax=0;resizeLast=0;collapsible=1;marginBottom=0;whiteSpace=wrap;html=1;sketch=1;hachureGap=4;jiggle=2;curveFitting=1;fontFamily=Architects Daughter;fontSource=https%3A%2F%2Ffonts.googleapis.com%2Fcss%3Ffamily%3DArchitects%2BDaughter;fontSize=20;" vertex="1" parent="NiQ3y41oNnvnrkbR4yds-1">
          <mxGeometry x="10" y="40" width="280" height="180" as="geometry" />
        </mxCell>
        <mxCell id="853pc65NUVb5E3yohh3O-2" value="ADB" style="text;strokeColor=none;fillColor=none;align=left;verticalAlign=middle;spacingLeft=4;spacingRight=4;overflow=hidden;points=[[0,0.5],[1,0.5]];portConstraint=eastwest;rotatable=0;whiteSpace=wrap;html=1;fontSize=20;fontFamily=Architects Daughter;" vertex="1" parent="853pc65NUVb5E3yohh3O-1">
          <mxGeometry y="30" width="280" height="30" as="geometry" />
        </mxCell>
        <mxCell id="853pc65NUVb5E3yohh3O-3" value="Ascreencap" style="text;strokeColor=none;fillColor=none;align=left;verticalAlign=middle;spacingLeft=4;spacingRight=4;overflow=hidden;points=[[0,0.5],[1,0.5]];portConstraint=eastwest;rotatable=0;whiteSpace=wrap;html=1;fontSize=20;fontFamily=Architects Daughter;" vertex="1" parent="853pc65NUVb5E3yohh3O-1">
          <mxGeometry y="60" width="280" height="30" as="geometry" />
        </mxCell>
        <mxCell id="853pc65NUVb5E3yohh3O-4" value="DroidCap" style="text;strokeColor=none;fillColor=none;align=left;verticalAlign=middle;spacingLeft=4;spacingRight=4;overflow=hidden;points=[[0,0.5],[1,0.5]];portConstraint=eastwest;rotatable=0;whiteSpace=wrap;html=1;fontSize=20;fontFamily=Architects Daughter;" vertex="1" parent="853pc65NUVb5E3yohh3O-1">
          <mxGeometry y="90" width="280" height="30" as="geometry" />
        </mxCell>
        <mxCell id="853pc65NUVb5E3yohh3O-5" value="uiAutomator" style="text;strokeColor=none;fillColor=none;align=left;verticalAlign=middle;spacingLeft=4;spacingRight=4;overflow=hidden;points=[[0,0.5],[1,0.5]];portConstraint=eastwest;rotatable=0;whiteSpace=wrap;html=1;fontSize=20;fontFamily=Architects Daughter;" vertex="1" parent="853pc65NUVb5E3yohh3O-1">
          <mxGeometry y="120" width="280" height="30" as="geometry" />
        </mxCell>
        <mxCell id="853pc65NUVb5E3yohh3O-10" value="miniCap" style="text;strokeColor=none;fillColor=none;align=left;verticalAlign=middle;spacingLeft=4;spacingRight=4;overflow=hidden;points=[[0,0.5],[1,0.5]];portConstraint=eastwest;rotatable=0;whiteSpace=wrap;html=1;fontSize=20;fontFamily=Architects Daughter;" vertex="1" parent="853pc65NUVb5E3yohh3O-1">
          <mxGeometry y="150" width="280" height="30" as="geometry" />
        </mxCell>
        <mxCell id="853pc65NUVb5E3yohh3O-6" value="Touch on Emulator" style="swimlane;fontStyle=0;childLayout=stackLayout;horizontal=1;startSize=30;horizontalStack=0;resizeParent=1;resizeParentMax=0;resizeLast=0;collapsible=1;marginBottom=0;whiteSpace=wrap;html=1;sketch=1;hachureGap=4;jiggle=2;curveFitting=1;fontFamily=Architects Daughter;fontSource=https%3A%2F%2Ffonts.googleapis.com%2Fcss%3Ffamily%3DArchitects%2BDaughter;fontSize=20;" vertex="1" parent="NiQ3y41oNnvnrkbR4yds-1">
          <mxGeometry x="300" y="40" width="210" height="150" as="geometry" />
        </mxCell>
        <mxCell id="853pc65NUVb5E3yohh3O-7" value="ADB" style="text;strokeColor=none;fillColor=none;align=left;verticalAlign=middle;spacingLeft=4;spacingRight=4;overflow=hidden;points=[[0,0.5],[1,0.5]];portConstraint=eastwest;rotatable=0;whiteSpace=wrap;html=1;fontSize=20;fontFamily=Architects Daughter;" vertex="1" parent="853pc65NUVb5E3yohh3O-6">
          <mxGeometry y="30" width="210" height="30" as="geometry" />
        </mxCell>
        <mxCell id="853pc65NUVb5E3yohh3O-8" value="uiAutomator" style="text;strokeColor=none;fillColor=none;align=left;verticalAlign=middle;spacingLeft=4;spacingRight=4;overflow=hidden;points=[[0,0.5],[1,0.5]];portConstraint=eastwest;rotatable=0;whiteSpace=wrap;html=1;fontSize=20;fontFamily=Architects Daughter;" vertex="1" parent="853pc65NUVb5E3yohh3O-6">
          <mxGeometry y="60" width="210" height="30" as="geometry" />
        </mxCell>
        <mxCell id="853pc65NUVb5E3yohh3O-9" value="minitouch" style="text;strokeColor=none;fillColor=none;align=left;verticalAlign=middle;spacingLeft=4;spacingRight=4;overflow=hidden;points=[[0,0.5],[1,0.5]];portConstraint=eastwest;rotatable=0;whiteSpace=wrap;html=1;fontSize=20;fontFamily=Architects Daughter;" vertex="1" parent="853pc65NUVb5E3yohh3O-6">
          <mxGeometry y="90" width="210" height="30" as="geometry" />
        </mxCell>
        <mxCell id="853pc65NUVb5E3yohh3O-11" value="maatouch" style="text;strokeColor=none;fillColor=none;align=left;verticalAlign=middle;spacingLeft=4;spacingRight=4;overflow=hidden;points=[[0,0.5],[1,0.5]];portConstraint=eastwest;rotatable=0;whiteSpace=wrap;html=1;fontSize=20;fontFamily=Architects Daughter;" vertex="1" parent="853pc65NUVb5E3yohh3O-6">
          <mxGeometry y="120" width="210" height="30" as="geometry" />
        </mxCell>
      </root>
    </mxGraphModel>
  </diagram>
  <diagram id="LsPW1KGJ2zIyk-8xrM6g" name="Plugin">
    <mxGraphModel dx="1434" dy="884" grid="1" gridSize="10" guides="1" tooltips="1" connect="1" arrows="1" fold="1" page="0" pageScale="1" pageWidth="827" pageHeight="1169" math="0" shadow="0">
      <root>
        <mxCell id="0" />
        <mxCell id="1" parent="0" />
      </root>
    </mxGraphModel>
  </diagram>
  <diagram id="gPY33phXvgAwDhyGkzbn" name="Utility">
    <mxGraphModel dx="1434" dy="884" grid="1" gridSize="10" guides="1" tooltips="1" connect="1" arrows="1" fold="1" page="0" pageScale="1" pageWidth="827" pageHeight="1169" math="0" shadow="0">
      <root>
        <mxCell id="0" />
        <mxCell id="1" parent="0" />
      </root>
    </mxGraphModel>
  </diagram>
</mxfile>
